<svg width="66" height="66" viewBox="0 0 66 66" fill="none" xmlns="http://www.w3.org/2000/svg">
<path fill-rule="evenodd" clip-rule="evenodd" d="M55.0356 30.25V35.75L48.1634 37.125L46.6481 40.777L50.5366 46.6152L46.6481 50.5037L40.8126 46.6152L37.1606 48.125L35.7856 55H30.2856L28.9106 48.125L25.2201 46.6483L19.3874 50.5368L15.4989 46.6483L19.3874 40.8155L17.9079 37.125L11.0356 35.75V30.25L17.9106 28.875L19.4231 25.2203L15.5319 19.3875L19.4204 15.499L25.2586 19.3875L28.9106 17.875L30.2856 11H35.7856L37.1606 17.875L40.7796 19.426L46.6096 15.5347L50.4981 19.426L46.6096 25.256L48.1634 28.875L55.0356 30.25ZM33.0026 24.7857C28.4459 24.7857 24.7499 28.4817 24.7499 33.033C24.7499 37.5925 28.4459 41.2885 33.0026 41.2885C37.5539 41.2885 41.2499 37.5925 41.2499 33.033C41.2499 28.4817 37.5539 24.7857 33.0026 24.7857Z" fill="#A2DBF2"/>
</svg>
