<svg width="38" height="44" viewBox="0 0 38 44" fill="none" xmlns="http://www.w3.org/2000/svg">
<path d="M17.6924 19.4615C17.6924 18.9942 18.0712 18.6154 18.5385 18.6154C19.0058 18.6154 19.3847 18.9942 19.3847 19.4615V24.9615H24.8847C25.352 24.9615 25.7308 25.3404 25.7308 25.8077C25.7308 26.275 25.352 26.6538 24.8847 26.6538H19.3847V32.1538C19.3847 32.6212 19.0058 33 18.5385 33C18.0712 33 17.6924 32.6212 17.6924 32.1538V26.6538H12.1924C11.7251 26.6538 11.3462 26.275 11.3462 25.8077C11.3462 25.3404 11.7251 24.9615 12.1924 24.9615H17.6924V19.4615Z" fill="#A2DBF2"/>
<path fill-rule="evenodd" clip-rule="evenodd" d="M33.8428 5.92308H27.7717C26.1674 2.42756 22.6364 0 18.5385 0C14.4406 0 10.9097 2.42756 9.30538 5.92308H3.23422C2.32881 5.92308 1.58379 6.63572 1.54358 7.54025L0.00170379 42.2326C-0.041104 43.1957 0.728217 44 1.69234 44H35.3847C36.3489 44 37.1182 43.1957 37.0754 42.2326L35.5335 7.54025C35.4933 6.63572 34.7483 5.92308 33.8428 5.92308ZM26.8498 8.55812C26.7886 8.23707 26.7091 7.92245 26.6127 7.61538H10.4644C10.3679 7.92245 10.2885 8.23707 10.2272 8.55812C10.4484 8.49521 10.6818 8.46154 10.9232 8.46154C12.3251 8.46154 13.4616 9.59805 13.4616 11C13.4616 12.402 12.3251 13.5385 10.9232 13.5385C9.5212 13.5385 8.38469 12.402 8.38469 11C8.38469 10.9048 8.38992 10.8109 8.40012 10.7185C8.38988 10.5316 8.38469 10.3433 8.38469 10.1538C8.38469 9.27732 8.49575 8.42673 8.70458 7.61538H3.23422L1.69234 42.3077H35.3847L33.8428 7.61538H28.3725C28.5813 8.42673 28.6924 9.27732 28.6924 10.1538C28.6924 10.3433 28.6872 10.5316 28.6769 10.7185C28.6871 10.8109 28.6924 10.9048 28.6924 11C28.6924 12.402 27.5559 13.5385 26.1539 13.5385C24.752 13.5385 23.6155 12.402 23.6155 11C23.6155 9.59805 24.752 8.46154 26.1539 8.46154C26.3952 8.46154 26.6287 8.49521 26.8498 8.55812ZM18.5385 1.69231C15.4066 1.69231 12.672 3.39392 11.209 5.92308H25.8681C24.405 3.39392 21.6705 1.69231 18.5385 1.69231ZM10.9232 11.8462C11.3905 11.8462 11.7693 11.4673 11.7693 11C11.7693 10.5327 11.3905 10.1538 10.9232 10.1538C10.4558 10.1538 10.077 10.5327 10.077 11C10.077 11.4673 10.4558 11.8462 10.9232 11.8462ZM27.0001 11C27.0001 11.4673 26.6212 11.8462 26.1539 11.8462C25.6866 11.8462 25.3078 11.4673 25.3078 11C25.3078 10.5327 25.6866 10.1538 26.1539 10.1538C26.6212 10.1538 27.0001 10.5327 27.0001 11Z" fill="#A2DBF2"/>
</svg>
