<svg width="46" height="50" viewBox="0 0 46 50" fill="none" xmlns="http://www.w3.org/2000/svg">
<g clip-path="url(#clip0_596_1024)">
<path d="M22.5556 17.0264C24.5426 17.0264 26.1537 18.6375 26.1537 20.6245C26.1537 21.0541 26.5296 21.4301 26.9593 21.4301C27.3889 21.4301 27.7648 21.0541 27.7648 20.6245C27.7648 18.0467 25.8852 15.8986 23.3611 15.5226V10.4745C23.3611 10.0449 22.9852 9.66895 22.5556 9.66895C22.1259 9.66895 21.75 10.0449 21.75 10.4745V15.5226C19.2796 15.8986 17.3463 18.0467 17.3463 20.6245C17.3463 23.4708 19.6556 25.8338 22.5556 25.8338C24.5426 25.8338 26.1537 27.4449 26.1537 29.4319C26.1537 31.4189 24.5426 33.0301 22.5556 33.0301C20.5685 33.0301 18.9574 31.4189 18.9574 29.4319C18.9574 29.0023 18.5815 28.6264 18.1519 28.6264C17.7222 28.6264 17.3463 29.0023 17.3463 29.4319C17.3463 32.0097 19.2259 34.1578 21.75 34.5338V39.5819C21.75 40.0115 22.1259 40.3875 22.5556 40.3875C22.9852 40.3875 23.3611 40.0115 23.3611 39.5819V34.5338C25.8315 34.1578 27.7648 32.0097 27.7648 29.4319C27.7648 26.5856 25.4556 24.2226 22.5556 24.2226C20.5685 24.2226 18.9574 22.6115 18.9574 20.6245C18.9574 18.6375 20.5685 17.0264 22.5556 17.0264Z" fill="#A2DBF2"/>
<path d="M31.7389 4.19096L30.0204 5.26504C29.6444 5.47985 29.537 6.01689 29.7519 6.39282C29.913 6.66133 30.1815 6.76874 30.45 6.76874C30.6111 6.76874 30.7185 6.71504 30.8796 6.66133L34.8537 4.19096C35.0685 4.02985 35.2296 3.76133 35.2296 3.49282C35.2296 3.2243 35.0685 2.95578 34.8537 2.79467L30.6111 0.109484C30.2352 -0.105331 29.7519 0.00207675 29.4833 0.378003C29.2685 0.753929 29.3759 1.23726 29.7519 1.50578L31.4704 2.57985H22.5556C10.0963 2.57985 0 12.7298 0 25.1354C0 25.565 0.375926 25.9409 0.805556 25.9409C1.23519 25.9409 1.61111 25.565 1.61111 25.1354C1.61111 13.5891 11.0093 4.19096 22.5556 4.19096H31.7389Z" fill="#A2DBF2"/>
<path d="M44.3056 24.0078C43.8759 24.0078 43.5 24.3837 43.5 24.8134C43.5 36.3597 34.1019 45.7578 22.5556 45.7578H13.5871L15.3056 44.6837C15.6815 44.4689 15.7889 43.9319 15.5741 43.556C15.3593 43.18 14.8222 43.0726 14.4463 43.2874L10.4722 45.7578C10.2574 45.9189 10.0963 46.1874 10.0963 46.456C10.0963 46.7245 10.2574 46.993 10.4722 47.1541L14.7148 49.8393C14.8222 49.9467 14.9834 49.9467 15.1445 49.9467C15.413 49.9467 15.6815 49.8393 15.8426 49.5708C16.0574 49.1949 15.95 48.7115 15.5741 48.443L13.8556 47.3689H22.5556C35.0148 47.3689 45.1111 37.2189 45.1111 24.8134C45.1111 24.33 44.7889 24.0078 44.3056 24.0078Z" fill="#A2DBF2"/>
</g>
<defs>
<clipPath id="clip0_596_1024">
<rect width="45.3704" height="50" fill="white"/>
</clipPath>
</defs>
</svg>
