<svg width="44" height="45" viewBox="0 0 44 45" fill="none" xmlns="http://www.w3.org/2000/svg">
<path d="M19.4396 44.0075C19.2829 44.021 19.1254 43.9955 18.981 43.9334C18.8365 43.8712 18.7097 43.7743 18.6118 43.6513C18.3978 43.3469 18.3113 42.9708 18.3708 42.6035C20.1815 36.3117 21.0536 29.787 20.9589 23.2405C20.9589 22.9459 21.0759 22.6634 21.2842 22.4552C21.4925 22.2469 21.775 22.1299 22.0695 22.1299C22.3641 22.1299 22.6466 22.2469 22.8549 22.4552C23.0632 22.6634 23.1802 22.9459 23.1802 23.2405C23.2944 29.9687 22.4152 36.6768 20.5712 43.1483C20.5108 43.4002 20.3652 43.6235 20.1589 43.7801C19.9526 43.9367 19.6984 44.0171 19.4396 44.0075ZM28.2933 37.4589H28.0523C27.9081 37.4351 27.77 37.383 27.6459 37.3057C27.5219 37.2284 27.4143 37.1273 27.3294 37.0083C27.2401 36.892 27.1763 36.7582 27.142 36.6156C27.1077 36.473 27.1037 36.3248 27.1303 36.1806C27.846 31.8421 28.1756 27.4486 28.1152 23.0519C28.0481 21.4412 27.3648 19.9178 26.2065 18.7966C25.0482 17.6753 23.5034 17.0419 21.8914 17.0272C21.0891 17.008 20.2913 17.1513 19.5458 17.4484C18.8004 17.7455 18.1227 18.1903 17.5536 18.756C17.0285 19.289 16.6145 19.9209 16.3357 20.6152C16.0569 21.3095 15.9188 22.0523 15.9295 22.8004C15.9991 27.3485 15.5776 31.8907 14.6722 36.3482C14.6209 36.5909 14.4898 36.8093 14.2999 36.9688C14.11 37.1283 13.8722 37.2197 13.6244 37.2284H13.3939C13.1061 37.1653 12.8542 36.9923 12.6919 36.7464C12.6117 36.6239 12.5566 36.4868 12.5296 36.343C12.5027 36.1991 12.5044 36.0514 12.5347 35.9082C13.4205 31.6145 13.8316 27.2364 13.7606 22.8528C13.7395 21.8127 13.927 20.7789 14.3121 19.8125C14.6972 18.8461 15.2721 17.9667 16.0029 17.2262C16.7879 16.4437 17.7218 15.8263 18.7493 15.4106C19.7769 14.9949 20.8773 14.7893 21.9857 14.8059C24.1777 14.837 26.2736 15.711 27.8383 17.2464C29.403 18.7819 30.3164 20.8609 30.3889 23.0519C30.4429 27.5622 30.0922 32.0682 29.3411 36.5159C29.3411 36.5159 29.1211 37.4589 28.2933 37.4589ZM35.785 34.3156C35.6392 34.3012 35.4978 34.258 35.3689 34.1883C35.2401 34.1186 35.1265 34.0239 35.0347 33.9097C34.943 33.7955 34.875 33.6642 34.8347 33.5233C34.7944 33.3825 34.7826 33.2351 34.8001 33.0896C35.1935 29.6466 35.3615 26.1816 35.303 22.7166C35.1682 19.2119 33.6866 15.8942 31.1669 13.4545C28.6471 11.0148 25.2834 9.64104 21.7761 9.61935H21.6609C20.585 9.6163 19.5124 9.73938 18.4651 9.98607H18.2137C17.942 9.98597 17.6798 9.88631 17.4767 9.70596C17.2736 9.52561 17.1436 9.27706 17.1113 9.00733C17.079 8.73761 17.1468 8.46541 17.3016 8.24224C17.4565 8.01906 17.6878 7.86038 17.9517 7.79621C19.0976 7.5173 20.272 7.37313 21.4513 7.36662H21.7971C25.8865 7.41253 29.8011 9.03191 32.7279 11.8884C35.6546 14.7449 37.3686 18.619 37.5138 22.7061C37.5649 26.2656 37.3899 29.8248 36.9899 33.3621C36.9546 33.6215 36.8312 33.8608 36.6405 34.0401C36.4498 34.2194 36.2032 34.3278 35.9421 34.347L35.785 34.3156ZM6.81382 33.9488H6.54139C6.25193 33.8929 5.99616 33.7251 5.82947 33.482C5.66278 33.2388 5.59858 32.9397 5.65078 32.6496C6.26596 29.2555 6.54671 25.8093 6.48901 22.3604C6.43107 18.9314 7.58503 15.592 9.74761 12.9303C9.85209 12.8034 9.98322 12.701 10.1317 12.6304C10.2802 12.5597 10.4424 12.5226 10.6068 12.5217C10.8637 12.5166 11.1135 12.6061 11.3088 12.7732C11.4274 12.86 11.5274 12.9697 11.6029 13.0958C11.6783 13.2219 11.7278 13.3618 11.7483 13.5073C11.7688 13.6529 11.76 13.801 11.7223 13.9431C11.6846 14.0851 11.6188 14.2182 11.5288 14.3344C9.68443 16.5761 8.70652 19.4058 8.77317 22.308C8.82521 25.9005 8.53401 29.4897 7.90351 33.0268C7.90351 33.0268 7.673 33.9488 6.85573 33.9488H6.81382ZM42.8784 24.896C42.5835 24.888 42.3025 24.7681 42.0926 24.5607C41.8911 24.3487 41.7785 24.0674 41.7783 23.7749C41.8713 21.8357 41.7199 19.8925 41.3277 17.9911C41.268 17.7025 41.3233 17.4019 41.4818 17.1534C41.6403 16.9049 41.8895 16.728 42.1764 16.6604C42.26 16.6503 42.3444 16.6503 42.4279 16.6604C42.6757 16.6691 42.9136 16.7605 43.1034 16.92C43.2933 17.0795 43.4244 17.298 43.4757 17.5406C43.8948 19.6084 44.0637 21.7191 43.9786 23.8273C43.9787 24.1266 43.8612 24.4139 43.6516 24.6275C43.4419 24.8411 43.1567 24.9639 42.8575 24.9693L42.8784 24.896ZM1.10341 24.2778C0.953504 24.2752 0.805668 24.2424 0.668811 24.1811C0.531955 24.1199 0.408911 24.0316 0.307095 23.9216C0.203479 23.8175 0.122885 23.6929 0.070539 23.5557C0.018193 23.4185 -0.00473596 23.2719 0.00323887 23.1252V21.1659C-0.0458495 18.4071 0.463499 15.6669 1.50066 13.11C2.53781 10.5531 4.08135 8.23241 6.03846 6.2874C8.05805 4.27289 10.4578 2.67975 13.0983 1.60052C15.7388 0.521295 18.5674 -0.0225032 21.4199 0.000713221H21.7028C25.3112 0.06057 28.8544 0.971451 32.0443 2.65924C35.2342 4.34703 37.9805 6.76406 40.0599 9.71365C40.2306 9.95225 40.301 10.2483 40.256 10.5382C40.2109 10.8281 40.054 11.0888 39.8189 11.2644C39.6334 11.3988 39.4089 11.4688 39.1798 11.4634C39.0002 11.4696 38.822 11.4295 38.6623 11.3469C38.5027 11.2644 38.367 11.1421 38.2682 10.9919C36.3895 8.32551 33.9063 6.14173 31.0216 4.61927C28.1369 3.0968 24.9328 2.2789 21.6714 2.23249H21.3675C18.8192 2.21083 16.2919 2.69516 13.9322 3.65741C11.5724 4.61965 9.42713 6.04068 7.62061 7.83812C5.87143 9.57089 4.49292 11.6413 3.56888 13.9235C2.64485 16.2056 2.19459 18.6519 2.24549 21.1135V23.2091C2.22942 23.4926 2.10534 23.7592 1.89877 23.9541C1.6922 24.149 1.41883 24.2573 1.13484 24.2569L1.10341 24.2778Z" fill="#A2DBF2"/>
</svg>
