<svg width="52" height="52" viewBox="0 0 52 52" fill="none" xmlns="http://www.w3.org/2000/svg">
<path fill-rule="evenodd" clip-rule="evenodd" d="M5 46.5L14.3546 39.6H44.9C46.0598 39.6 47 38.6598 47 37.5V8.1C47 6.94021 46.0598 6 44.9 6H7.1C5.94021 6 5 6.94021 5 8.1V46.5ZM44.3 37.4H12.9019L7.2 41.5V8.7C7.2 8.42386 7.42386 8.2 7.7 8.2H44.3C44.5761 8.2 44.8 8.42386 44.8 8.7V36.9C44.8 37.1761 44.5761 37.4 44.3 37.4ZM32.6185 14.406L31.3266 12L30.0346 14.406L27.6123 15.6892L30.0346 16.9724L31.3266 19.3784L32.6185 16.9724L35.0408 15.6892L32.6185 14.406ZM30.0204 22.5L25.1224 19.9054L22.5102 15.0405L19.898 19.9054L15 22.5L19.898 25.0946L22.5102 29.9595L25.1224 25.0946L30.0204 22.5ZM23.6744 21.3437L25.8571 22.5L23.6744 23.6563L22.5102 25.8243L21.3461 23.6563L19.1633 22.5L21.3461 21.3437L22.5102 19.1757L23.6744 21.3437ZM32.3062 23.6757L33.9388 26.7163L37 28.3378L33.9388 29.9595L32.3062 33L30.6735 29.9595L27.6123 28.3378L30.6735 26.7163L32.3062 23.6757Z" fill="#A2DBF2"/>
</svg>
