<svg width="44" height="37" viewBox="0 0 44 37" fill="none" xmlns="http://www.w3.org/2000/svg">
<path fill-rule="evenodd" clip-rule="evenodd" d="M42.8223 0.835167C40.0458 0.402471 37.4917 0.0721315 35.2513 0.0440047C33.0457 0.0163151 30.0436 0.144057 27.4698 0.253574L27.3482 0.258747C26.562 0.292193 25.7787 0.391695 24.9953 0.491215C24.6002 0.541403 24.205 0.591596 23.8095 0.633323C23.5999 0.655435 23.3893 0.685823 23.1785 0.71623C22.6633 0.790569 22.1473 0.865028 21.6429 0.818977C20.71 0.733807 19.7795 0.61232 18.8492 0.49087C17.4898 0.313396 16.1311 0.136002 14.7665 0.0721315C10.4386 -0.130435 6.11244 0.0998846 1.81839 0.684575C1.70699 0.699743 1.58633 0.7076 1.46214 0.715685H1.46214C0.800178 0.758785 0.0379269 0.808415 0.0438511 2.00671C0.0759499 8.49952 0.0730779 14.9925 0.0702059 21.4855V21.4855V21.4855C0.0690576 24.0815 0.0679093 26.6775 0.068996 29.2734C0.0694053 30.2505 0.495756 30.5354 1.45908 30.4304C1.98068 30.3735 2.50233 30.3147 3.02406 30.2558C5.22643 30.0072 7.43044 29.7585 9.64028 29.6596C11.8123 29.5623 14.0004 29.6988 16.176 29.8346L16.176 29.8346L16.3375 29.8446C17.422 29.9122 18.502 30.0507 19.5821 30.1891L19.5821 30.1891L19.5824 30.1892C20.1696 30.2644 20.7569 30.3397 21.345 30.4036C21.709 30.4432 22.0842 30.4466 22.448 30.4083C23.239 30.325 24.0293 30.2246 24.8194 30.1241L24.8196 30.1241C26.4202 29.9206 28.0206 29.7171 29.6265 29.6567C33.912 29.4955 38.1958 29.6508 42.4354 30.4218C43.3555 30.5891 43.8596 30.1768 43.9263 29.2101C43.9583 28.7468 43.9506 28.2807 43.9429 27.8147V27.8146C43.9395 27.6091 43.9361 27.4036 43.9361 27.1984C43.9361 25.3573 43.9359 23.5162 43.9357 21.6751C43.9352 15.2322 43.9346 8.78928 43.9418 2.34637C43.9427 1.53756 43.8219 0.92927 42.8223 0.835167ZM20.9947 28.2682L14.0497 27.8145C9.64028 27.657 7.14371 27.8145 1.88 28.3329C1.87956 28.3255 1.87969 28.1351 1.87984 27.9226L1.88 27.5301C1.87925 25.2835 1.8792 23.0369 1.87915 20.7902V20.7891C1.87904 15.0574 1.87892 9.32563 1.86705 3.59392C1.86572 2.95059 1.93212 2.5002 2.71069 2.45452C3.76023 2.39295 4.80955 2.31404 5.85881 2.23513L5.85882 2.23513L5.85882 2.23513C8.01951 2.07264 10.1799 1.91017 12.3413 1.89916C14.3988 1.88868 16.4586 2.10241 18.5155 2.31585C19.0967 2.37616 19.6777 2.43645 20.2584 2.49165C20.8277 2.49165 20.9628 2.94669 20.9639 3.19032C20.9962 10.5169 20.9955 17.8436 20.9949 25.1348V25.1351V25.1367L20.9947 28.2682ZM40.4473 28.183C39.5202 28.0794 38.5898 27.9755 37.4917 27.9106C33.2037 27.657 27.7266 27.5849 22.8879 28.4253C22.8785 28.3366 22.867 28.2507 22.8557 28.1665C22.8322 27.9915 22.8098 27.8243 22.8097 27.657C22.8085 25.2017 22.8082 22.7464 22.808 20.2911C22.8075 14.6998 22.807 9.1084 22.7947 3.51707C22.7933 2.88868 22.9211 2.50035 23.6158 2.45788C24.6192 2.39655 25.6224 2.32061 26.6256 2.24467L26.6256 2.24467L26.6256 2.24467C28.8327 2.0776 31.0396 1.91054 33.2474 1.89911C33.5949 1.90928 33.9222 1.91848 34.2324 1.9272C37.2055 2.01081 38.6028 2.0501 41.1678 2.46607C41.6338 2.50351 41.9354 2.68865 41.934 3.26938C41.919 9.50568 41.9153 15.742 41.9117 21.9783C41.9104 24.0567 41.9092 26.1351 41.9076 28.2135C41.9076 28.2328 41.8966 28.2522 41.8813 28.2789C41.8727 28.2941 41.8627 28.3116 41.8526 28.3329C41.3714 28.2863 40.9098 28.2347 40.4473 28.183ZM8.04948 5.07484H10.6655V6.88596H8.04948V5.07484ZM3.82349 5.07495H6.43955V6.88607H3.82349V5.07495ZM14.8916 5.07484H12.2755V6.88596H14.8916V5.07484ZM16.5013 5.07484H19.1174V6.88596H16.5013V5.07484ZM6.43953 9.30085H3.82346V11.112H6.43953V9.30085ZM3.82346 13.5267H6.43953V15.3378H3.82346V13.5267ZM10.6655 9.30085H8.04948V11.112H10.6655V9.30085ZM8.04948 13.5267H10.6655V15.3378H8.04948V13.5267ZM14.8916 9.30085H12.2755V11.112H14.8916V9.30085ZM12.2755 13.5267H14.8916V15.3378H12.2755V13.5267ZM19.1174 9.30085H16.5013V11.112H19.1174V9.30085ZM16.5013 13.5267H19.1174V15.3378H16.5013V13.5267ZM31.9291 31.8373H31.9296H31.9297C35.493 31.8339 39.0091 31.8306 42.5248 31.8682C42.9948 31.8732 43.6938 32.1622 43.8792 32.5266C44.2587 33.2728 43.7102 33.8372 42.7098 33.8462C41.3092 33.8589 39.9084 33.8563 38.5076 33.8537C37.9299 33.8526 37.3522 33.8516 36.7745 33.8516C35.9204 33.8516 35.0664 33.8521 34.2123 33.8526H34.2104C31.477 33.8541 28.7437 33.8557 26.0104 33.8413C25.5299 33.8387 25.2366 33.9308 25.0196 34.4119C23.8717 36.9569 20.0386 36.9079 18.7897 34.3738C18.6484 34.0871 18.0619 33.8756 17.6805 33.8734C15.2466 33.8589 12.8127 33.8564 10.3788 33.8538C7.41391 33.8507 4.44903 33.8477 1.48431 33.8231C1.01301 33.8192 0.31202 33.5341 0.124252 33.17C-0.261194 32.4225 0.284412 31.8585 1.28728 31.8445C2.29842 31.8303 3.3098 31.8334 4.32118 31.8365C4.75179 31.8379 5.1824 31.8392 5.61299 31.8392L9.05267 31.8393C12.3325 31.8395 15.6123 31.8396 18.8921 31.8385C19.7047 31.8382 20.3181 31.8896 20.4724 33.0056C20.5466 33.5428 21.3347 34.2305 21.92 34.3808C22.559 34.5449 23.2779 34.0192 23.3875 33.2232C23.5523 32.0274 24.2191 31.7356 25.324 31.82C26.1064 31.8798 26.8943 31.8662 27.7153 31.852C28.0839 31.8457 28.4592 31.8392 28.8436 31.8392C29.8767 31.8392 30.9049 31.8382 31.9291 31.8373ZM28.7768 13.5269H31.3929V15.338H28.7768V13.5269ZM24.5508 13.5269H27.1669V15.338H24.5508V13.5269ZM35.6189 13.5269H33.0028V15.338H35.6189V13.5269ZM37.2287 13.5269H39.8447V15.338H37.2287V13.5269ZM27.1669 17.7529H24.5508V19.564H27.1669V17.7529ZM24.5508 21.9787H27.1669V23.7898H24.5508V21.9787ZM31.3929 17.7529H28.7768V19.564H31.3929V17.7529ZM28.7768 21.9787H31.3929V23.7898H28.7768V21.9787ZM35.6189 17.7529H33.0028V19.564H35.6189V17.7529ZM33.0028 21.9787H35.6189V23.7898H33.0028V21.9787ZM39.8447 17.7529H37.2287V19.564H39.8447V17.7529ZM37.2287 21.9787H39.8447V23.7898H37.2287V21.9787Z" fill="#A2DBF2"/>
</svg>
