<svg width="50" height="50" viewBox="0 0 50 50" fill="none" xmlns="http://www.w3.org/2000/svg">
<path d="M5.76745 35.1904L25.7937 46.7529L26.8312 44.956L6.80495 33.3935L5.76745 35.1904Z" fill="#E535AB"/>
<path d="M23.1642 5.05566L43.1904 16.6182L44.2279 14.8212L24.2017 3.25871L23.1642 5.05566Z" fill="#E535AB"/>
<path d="M5.7728 14.8134L6.8103 16.6104L26.8366 5.04785L25.7991 3.2509L5.7728 14.8134Z" fill="#E535AB"/>
<path d="M8.6375 13.4375H6.5625V36.5625H8.6375V13.4375Z" fill="#E535AB"/>
<path d="M43.4375 13.4375H41.3625V36.5625H43.4375V13.4375Z" fill="#E535AB"/>
<path d="M24.5339 44.3054L25.4402 45.875L42.8576 35.8188L41.9514 34.2491L24.5339 44.3054Z" fill="#E535AB"/>
<path d="M46.1875 37.2374C44.9875 39.3249 42.3125 40.0374 40.225 38.8374C38.1375 37.6374 37.425 34.9624 38.625 32.8749C39.825 30.7874 42.5 30.0749 44.5875 31.2749C46.6875 32.4874 47.4 35.1499 46.1875 37.2374Z" fill="#E535AB"/>
<path d="M11.3625 17.1251C10.1625 19.2126 7.48754 19.9251 5.40004 18.7251C3.31254 17.5251 2.60004 14.8501 3.80004 12.7626C5.00004 10.6751 7.67504 9.96259 9.76254 11.1626C11.85 12.3751 12.5625 15.0376 11.3625 17.1251Z" fill="#E535AB"/>
<path d="M3.81249 37.2374C2.61249 35.1499 3.32499 32.4874 5.41249 31.2749C7.49999 30.0749 10.1625 30.7874 11.375 32.8749C12.575 34.9624 11.8625 37.6249 9.77499 38.8374C7.67499 40.0374 5.01249 39.3249 3.81249 37.2374Z" fill="#E535AB"/>
<path d="M38.6374 17.1251C37.4374 15.0376 38.1499 12.3751 40.2374 11.1626C42.3249 9.96259 44.9874 10.6751 46.1999 12.7626C47.3999 14.8501 46.6874 17.5126 44.5999 18.7251C42.5124 19.9251 39.8374 19.2126 38.6374 17.1251Z" fill="#E535AB"/>
<path d="M25 49.475C22.5875 49.475 20.6375 47.525 20.6375 45.1125C20.6375 42.7 22.5875 40.75 25 40.75C27.4125 40.75 29.3624 42.7 29.3624 45.1125C29.3624 47.5125 27.4125 49.475 25 49.475Z" fill="#E535AB"/>
<path d="M25 9.2499C22.5875 9.2499 20.6375 7.2999 20.6375 4.8874C20.6375 2.4749 22.5875 0.524902 25 0.524902C27.4125 0.524902 29.3624 2.4749 29.3624 4.8874C29.3624 7.2999 27.4125 9.2499 25 9.2499Z" fill="#E535AB"/>
<path d="M24.9766 23.9766L13.9766 28.8203V25.6562L21.5078 22.6328L21.4063 22.7969V22.4063L21.5078 22.5703L13.9766 19.5469V16.3828L24.9766 21.2266V23.9766ZM37.4453 29V31.5234H26.9375V29H37.4453Z" fill="#A2DBF2"/>
</svg>
